# xmcd
#
# Track frame offsets: 
#        150
#        18925
#        42225
#        60250
#        77475
#        97900
#        115750
#        135175
#        155100
#        174325
#        195550
#
# Disc length: 2841 seconds
#
# Revision: 0
# Processed by: cddbd v1.5.2PL0 Copyright (c) Steve Scherf et al.
# Submitted via: ExactAudioCopy v0.99pb5
#
DISCID=760b170b
DTITLE=Ivy Violan - IV
DYEAR=1900
DGENRE=Ballad
TTITLE0=Ilang Luha Pa Ba?
TTITLE1=Pagdating Niya sa Buhay Ko
TTITLE2=Di Mo Lang Alam
TTITLE3=Nasaan Ka ng Kailangan Kita
TTITLE4=Kahit May Mahal Ka Nang Iba
TTITLE5=Bakit Ikaw Pa
TTITLE6=lilimutin Ko Na Ba?
TTITLE7=Tatawagan Ba Kita?
TTITLE8=Ikaw Lang Pala
TTITLE9=Sa 'yo Pa Rin
TTITLE10=Easy to Love You
EXTD=
EXTT0=
EXTT1=
EXTT2=
EXTT3=
EXTT4=
EXTT5=
EXTT6=
EXTT7=
EXTT8=
EXTT9=
EXTT10=
PLAYORDER=
